<?xml version="1.0" standalone="no"?><!DOCTYPE svg PUBLIC "-//W3C//DTD SVG 1.1//EN" "http://www.w3.org/Graphics/SVG/1.1/DTD/svg11.dtd"><svg t="1554198885206" class="icon" style="" viewBox="0 0 1052 1024" version="1.1" xmlns="http://www.w3.org/2000/svg" p-id="3016" xmlns:xlink="http://www.w3.org/1999/xlink" width="205.46875" height="200"><defs><style type="text/css"></style></defs><path d="M516.920889 741.745778c4.010667 0 8.106667-0.227556 12.231111-0.711111 39.395556-4.551111 72.874667-31.260444 85.248-68.010667a5.575111 5.575111 0 0 0-3.128889-6.912 5.973333 5.973333 0 0 0-7.480889 2.275556c-0.142222 0.284444-15.815111 24.746667-76.8 32.711111-9.102222 1.194667-17.976889 1.820444-26.396444 1.820444-42.723556 0-61.781333-15.616-61.952-15.758222a5.973333 5.973333 0 0 0-7.623111-0.085333 5.575111 5.575111 0 0 0-1.223111 7.338666 103.964444 103.964444 0 0 0 87.125333 47.331556zM844.8 375.808c-0.540444 0-1.024 0.113778-1.536 0.113778C807.537778 226.133333 671.004444 114.346667 507.335111 114.346667c-168.163556 0-307.797333 117.930667-338.773333 273.92-30.094222 5.233778-52.992 30.833778-52.992 61.809777v124.017778c0 34.702222 28.785778 62.919111 64.284444 62.919111 20.053333 0 37.745778-9.187556 49.521778-23.239111 28.444444 72.817778 86.328889 131.527111 159.573333 162.503111a32.995556 32.995556 0 0 1 3.242667-5.034666c1.137778-1.450667 2.446222-2.645333 3.555556-2.645334 1.137778 0 2.190222 0.398222 3.100444 1.024-16.952889-12.231111-78.222222-75.064889-91.477333-162.759111-5.802667-38.570667 24.035556-76.458667 58.823111-82.744889 55.808-10.069333 111.331556-21.532444 167.139555-31.402666 35.470222-6.257778 59.733333-25.116444 74.524445-56.490667 3.498667-7.338667 8.533333-22.186667 10.808889-43.548444a6.826667 6.826667 0 0 1 6.769777-5.632c2.275556 0 4.266667 1.137778 5.546667 2.759111l1.536-0.910223c21.987556 30.919111 65.621333 99.413333 71.879111 171.633778 7.196444 82.545778 3.185778 139.093333-62.065778 196.949334l-0.284444 0.227555a5.12 5.12 0 0 0-1.422222 3.555556c0 1.763556 0.967111 3.299556 2.389333 4.209777 0.540444 0.227556 1.080889 0.512 1.621333 0.711112 0.426667 0.085333 0.853333 0.227556 1.28 0.227555 0.455111 0 0.853333-0.142222 1.223112-0.227555 0.938667-0.483556 1.820444-1.024 2.730666-1.479112 65.991111-35.214222 116.622222-94.008889 140.003556-164.721777 9.472 13.624889 24.291556 23.409778 41.528889 26.851555-27.619556 121.656889-139.690667 197.831111-278.528 209.379556-8.305778-19.996444-28.785778-34.190222-52.849778-34.190222-31.431111 0-56.888889 24.092444-56.888889 53.788444s25.457778 53.76 56.888889 53.76c25.315556 0 46.535111-15.758222 53.902222-37.404444 160.711111-12.629333 289.536-105.159111 316.416-248.888889 23.779556-9.614222 40.448-32.170667 40.448-58.538667v-125.44c0-35.072-29.553778-63.516444-65.991111-63.516444z m-59.278222 36.039111c-41.927111-109.966222-150.528-188.501333-278.300445-188.501333-127.232 0-235.463111 77.880889-277.76 187.136-2.104889-2.503111-4.579556-4.636444-6.997333-6.798222 23.950222-133.12 142.250667-234.353778 284.899556-234.353778 141.966222 0 259.896889 100.238222 284.643555 232.419555a62.094222 62.094222 0 0 0-6.485333 10.097778zM389.091556 776.334222h-0.028445c-0.170667 0.341333-0.170667 0.398222 0.028445 0z" fill="#e6e6e6" p-id="3017"></path></svg>